<?xml version="1.0" standalone="no"?>
<!DOCTYPE svg PUBLIC "-//W3C//DTD SVG 20010904//EN"
 "http://www.w3.org/TR/2001/REC-SVG-20010904/DTD/svg10.dtd">
<svg version="1.0" xmlns="http://www.w3.org/2000/svg"
 width="1080.000000pt" height="1080.000000pt" viewBox="0 0 1080.000000 1080.000000"
 preserveAspectRatio="xMidYMid meet">
<metadata>
Created by potrace 1.14, written by Peter Selinger 2001-2017
</metadata>
<g transform="translate(0.000000,1080.000000) scale(0.100000,-0.100000)"
fill="#000000" stroke="none">
<path d="M5270 10004 c0 -7 -16 -12 -37 -12 -64 0 -239 -10 -275 -17 -18 -3
-49 -7 -68 -10 -19 -2 -37 -5 -40 -6 -3 -1 -9 -3 -15 -4 -5 -2 -12 -4 -15 -5
-3 -1 -24 -3 -47 -5 -23 -2 -50 -8 -60 -13 -10 -5 -23 -7 -30 -5 -6 2 -14 0
-17 -6 -4 -6 -13 -8 -21 -4 -8 3 -15 0 -15 -7 0 -6 -4 -8 -10 -5 -5 3 -16 3
-22 -2 -7 -4 -22 -9 -33 -10 -11 -2 -48 -12 -82 -23 -34 -11 -70 -21 -80 -23
-31 -5 -128 -39 -138 -48 -5 -5 -17 -9 -28 -9 -29 0 -181 -63 -355 -147 -45
-22 -70 -39 -66 -46 5 -9 4 -9 -6 0 -13 12 -49 -4 -111 -48 -14 -10 -29 -16
-33 -12 -3 3 -7 -5 -7 -18 -1 -16 -3 -19 -6 -7 -4 16 -6 16 -29 2 -13 -9 -21
-21 -17 -28 4 -6 -1 -5 -10 3 -15 12 -17 11 -17 -5 0 -16 -2 -17 -10 -4 -7 11
-10 11 -10 2 0 -8 -5 -10 -12 -6 -7 5 -9 2 -5 -8 4 -12 1 -14 -13 -11 -10 3
-30 -3 -44 -12 -14 -10 -26 -14 -26 -10 0 3 -25 -15 -55 -40 -30 -26 -55 -54
-55 -61 0 -8 -5 -14 -12 -14 -6 0 -8 -3 -5 -7 4 -3 0 -11 -9 -17 -8 -6 -16
-18 -18 -26 -1 -8 -9 -31 -18 -50 -10 -25 -12 -37 -4 -42 8 -6 8 -8 -1 -8 -6
0 -14 -15 -18 -32 -4 -18 -13 -46 -20 -63 -31 -74 -58 -142 -68 -165 -5 -14
-13 -34 -18 -45 -12 -31 -39 -133 -38 -142 1 -4 -1 -16 -6 -26 -4 -9 -5 -28
-3 -42 3 -13 1 -22 -3 -19 -8 5 -14 -25 -10 -53 1 -7 -2 -13 -7 -13 -6 0 -9
-6 -9 -12 2 -29 -16 -134 -25 -145 -6 -7 -8 -22 -5 -33 3 -13 1 -18 -6 -13 -6
4 -8 -2 -5 -15 4 -12 2 -20 -3 -16 -5 3 -9 -1 -9 -8 0 -23 -54 -183 -65 -190
-5 -4 -6 -8 -1 -8 5 0 2 -8 -5 -17 -9 -11 -10 -14 -2 -9 7 4 -1 -24 -18 -61
-17 -37 -30 -68 -29 -68 2 0 -6 -24 -16 -50 -4 -11 -8 -23 -8 -27 -1 -3 -4
-10 -8 -14 -4 -4 -2 -14 5 -22 9 -12 9 -14 0 -9 -15 9 -68 -97 -57 -114 4 -7
3 -9 -3 -6 -5 3 -23 -22 -39 -56 -16 -34 -32 -63 -36 -65 -5 -2 -8 -9 -8 -16
0 -17 -31 -79 -43 -87 -5 -3 -7 -8 -5 -10 6 -8 -35 -89 -45 -89 -5 0 -3 -8 4
-17 8 -9 9 -14 3 -10 -6 4 -21 -17 -37 -51 -30 -65 -50 -114 -51 -124 -1 -3
-4 -10 -8 -14 -5 -4 -8 -16 -8 -26 0 -10 -4 -18 -10 -18 -5 0 -10 -7 -10 -15
0 -9 -7 -27 -16 -40 -9 -14 -14 -34 -11 -45 3 -11 2 -18 -2 -15 -5 2 -13 -6
-19 -18 -42 -87 -53 -118 -46 -128 4 -7 3 -9 -3 -6 -9 6 -50 -75 -56 -111 -1
-9 -6 -23 -10 -29 -5 -7 -6 -13 -2 -13 3 0 -1 -13 -10 -30 -8 -16 -16 -33 -17
-37 -5 -29 -12 -43 -20 -43 -5 0 -6 -4 -3 -10 3 -5 1 -10 -6 -10 -7 0 -9 -3
-6 -7 4 -3 -2 -20 -12 -37 -10 -17 -33 -58 -51 -91 -18 -33 -37 -66 -42 -72
-6 -7 -8 -19 -5 -27 4 -11 1 -13 -11 -9 -15 6 -16 5 -2 -12 8 -10 10 -16 4
-12 -6 3 -18 -3 -27 -14 -9 -10 -14 -19 -12 -19 3 0 -2 -11 -11 -25 -8 -13
-13 -29 -9 -35 4 -6 2 -9 -3 -8 -13 4 -83 -93 -76 -104 3 -4 -2 -8 -11 -8 -9
0 -14 -4 -11 -8 3 -5 -4 -18 -14 -30 -11 -12 -20 -24 -20 -26 0 -9 -171 -291
-190 -313 -5 -7 -10 -15 -10 -18 0 -3 -9 -15 -20 -27 -10 -12 -17 -25 -14 -30
3 -4 -1 -8 -8 -8 -22 -1 -99 -115 -92 -136 4 -12 3 -15 -3 -7 -5 8 -14 9 -23
3 -12 -8 -12 -10 3 -15 15 -6 13 -12 -13 -50 -17 -24 -46 -60 -65 -81 -19 -20
-35 -40 -35 -43 0 -3 -9 -12 -21 -19 -19 -12 -19 -11 3 20 13 18 30 38 38 45
12 9 13 14 3 24 -11 11 -13 10 -13 -1 0 -8 -14 -29 -30 -47 -17 -18 -30 -34
-30 -37 0 -3 -11 -17 -25 -32 -29 -31 -34 -53 -7 -33 13 10 12 8 -3 -11 -32
-39 -45 -52 -45 -44 0 4 8 16 18 27 12 15 13 19 3 15 -8 -2 -19 -13 -25 -23
-6 -11 -18 -25 -26 -32 -8 -7 -11 -13 -6 -13 5 0 -3 -11 -19 -24 -15 -13 -24
-29 -21 -35 5 -7 2 -10 -6 -9 -7 2 -12 -5 -12 -15 1 -10 0 -16 -3 -13 -6 5
-49 -33 -46 -40 2 -2 -5 -12 -15 -23 -49 -53 -72 -80 -72 -86 0 -3 -6 -12 -12
-19 -7 -7 -22 -25 -33 -40 -11 -16 -35 -48 -53 -72 -18 -24 -29 -44 -25 -44 4
0 4 -4 -2 -8 -29 -21 -72 -104 -45 -87 6 4 7 -1 3 -11 -4 -12 -8 -14 -11 -6
-6 18 -32 -5 -32 -28 0 -10 -7 -20 -15 -24 -8 -3 -15 -13 -15 -23 0 -16 2 -16
11 -3 9 13 10 13 6 0 -2 -8 -11 -14 -19 -12 -8 1 -20 -12 -28 -33 -8 -19 -17
-35 -21 -35 -4 0 -6 -9 -4 -20 2 -11 -1 -19 -7 -17 -5 1 -15 -7 -21 -18 -7
-11 -16 -23 -21 -26 -4 -4 -4 -9 1 -12 6 -4 16 5 23 18 7 14 17 25 22 25 10 0
-18 -44 -48 -77 -12 -13 -28 -23 -35 -23 -17 0 -52 -54 -42 -64 3 -3 1 -6 -6
-6 -8 0 -11 -6 -7 -17 4 -10 4 -14 0 -10 -4 4 -36 -53 -72 -126 -36 -72 -69
-134 -74 -135 -4 -2 -8 -10 -8 -17 0 -8 -7 -21 -16 -29 -8 -9 -13 -16 -10 -16
4 0 -5 -18 -19 -40 -14 -22 -25 -46 -25 -54 0 -8 -3 -16 -7 -18 -5 -1 -17 -21
-28 -43 -11 -22 -22 -42 -25 -45 -7 -6 -70 -135 -70 -143 0 -2 -7 -21 -15 -41
-8 -20 -15 -38 -15 -41 0 -3 -7 -22 -16 -43 -22 -52 -29 -96 -13 -87 8 5 10 4
5 -3 -4 -6 -14 -8 -24 -5 -9 3 -14 3 -10 -2 4 -4 1 -23 -7 -41 -8 -19 -12 -34
-9 -34 3 0 0 -9 -6 -19 -7 -13 -7 -22 0 -26 5 -3 10 -12 10 -18 0 -8 -3 -7 -9
2 -7 11 -11 8 -16 -10 -8 -25 -5 -36 8 -31 5 1 6 -2 2 -8 -3 -6 -10 -8 -14 -5
-5 2 -17 -28 -28 -68 -16 -61 -17 -73 -5 -75 9 -3 12 -12 9 -25 -3 -12 -7 -31
-10 -42 -35 -144 -184 -505 -201 -488 -3 3 -6 -548 -6 -1226 l0 -1231 5400 0
5400 0 0 779 0 779 -72 74 c-40 41 -91 96 -113 122 -76 91 -100 119 -125 146
-14 15 -45 52 -70 81 -24 30 -59 69 -77 87 -18 19 -33 36 -33 38 0 2 -33 37
-74 77 -70 69 -113 108 -220 200 -26 23 -59 52 -72 64 -13 12 -24 19 -24 15 0
-4 -4 -2 -8 5 -15 23 -85 72 -95 66 -5 -3 -7 -1 -4 4 9 15 -29 47 -45 37 -7
-4 -10 -4 -6 1 11 11 -20 38 -37 31 -8 -3 -14 -2 -12 3 4 14 -169 141 -193
141 -5 0 -10 5 -10 11 0 8 -5 7 -15 -1 -13 -11 -14 -10 -10 2 7 17 -20 32 -37
21 -7 -4 -8 -1 -3 7 6 10 4 12 -9 7 -9 -4 -15 -3 -12 2 6 10 -113 73 -124 66
-4 -3 -10 2 -14 10 -3 8 -15 15 -26 15 -12 0 -19 4 -16 8 5 8 -1 10 -43 14
-11 1 -17 6 -15 10 3 4 -2 8 -10 8 -9 0 -16 4 -16 10 0 5 -7 7 -15 4 -8 -4
-15 -2 -15 4 0 5 -10 13 -22 17 -13 4 -25 8 -28 10 -3 1 -14 5 -25 9 -11 4
-28 12 -39 18 -10 5 -53 21 -95 34 -42 14 -83 27 -91 31 -8 3 -18 7 -22 8 -5
2 -9 3 -10 5 -2 1 -10 3 -19 5 -9 1 -43 12 -75 23 -109 37 -342 104 -439 126
-59 13 -74 18 -74 24 1 4 1 24 0 45 -1 27 -5 36 -13 31 -10 -5 -10 -4 -1 6 10
11 9 18 -5 34 -16 20 -16 20 1 7 17 -14 18 -12 10 40 -8 59 -8 313 0 394 3 28
9 75 13 105 9 79 11 198 3 245 -4 22 -9 78 -13 125 -3 47 -10 100 -15 118 -5
18 -10 35 -10 37 -1 3 -1 6 -2 8 -13 40 -26 371 -21 557 6 243 6 601 -1 650
-3 19 -5 94 -6 167 -1 116 -3 132 -18 136 -16 4 -16 5 0 6 16 1 18 8 15 60 -1
33 0 57 4 55 4 -2 9 0 13 6 3 5 2 10 -3 10 -5 0 -9 7 -9 15 0 8 5 15 10 15 6
0 8 2 5 6 -3 3 -2 21 2 40 4 19 4 37 -1 40 -5 3 -9 13 -8 22 0 14 2 14 8 -2 7
-19 8 -19 13 2 4 12 2 25 -4 28 -6 4 -6 9 -1 13 5 3 15 31 22 61 12 58 14 66
24 90 4 8 8 24 10 35 1 11 11 36 21 55 24 47 25 53 41 195 2 22 6 51 9 65 3
14 8 56 10 94 2 37 7 70 10 73 3 3 1 15 -5 26 -8 14 -8 18 1 12 9 -5 10 27 6
131 -3 77 -7 148 -10 159 -2 11 -5 26 -5 33 -1 8 -6 10 -13 6 -10 -6 -10 -4
-2 7 12 14 -8 92 -42 166 -8 17 -14 35 -13 40 1 4 0 10 -1 13 -5 15 -19 78
-25 120 -3 20 -7 47 -10 60 -3 14 -8 41 -11 60 -4 19 -16 43 -28 53 -14 11
-15 15 -5 11 14 -4 12 8 -11 76 -16 44 -29 83 -29 85 -1 26 -26 83 -34 78 -6
-4 -7 -1 -3 6 11 17 -2 61 -16 58 -7 -1 -13 7 -15 18 -3 19 -3 19 5 1 5 -11
11 -15 15 -10 3 6 2 16 -3 24 -4 7 -6 19 -3 27 3 7 -1 21 -8 30 -10 12 -10 15
-1 9 9 -5 12 3 13 31 0 21 2 47 4 58 12 67 13 95 2 88 -8 -4 -7 -1 1 9 7 9 11
27 8 39 -4 22 -15 45 -82 169 -28 54 -44 71 -58 63 -6 -4 -5 1 3 10 9 12 10
17 2 17 -7 0 -25 30 -41 66 -17 36 -34 63 -39 60 -5 -4 -13 -1 -17 5 -4 8 -3
9 4 5 18 -11 14 11 -5 41 -18 26 -95 165 -129 230 -9 18 -34 52 -55 75 -22 24
-39 46 -39 50 0 5 -5 8 -11 8 -6 0 -8 -7 -5 -15 8 -21 -37 12 -54 40 -10 16
-7 15 14 -4 14 -14 29 -22 32 -18 3 3 -11 21 -32 39 -20 18 -42 38 -48 43 -31
30 -266 178 -283 178 -7 0 -13 3 -13 7 0 11 -71 41 -82 34 -7 -4 -8 -2 -4 4 6
11 -13 17 -37 13 -5 -1 -6 3 -3 8 3 5 -9 15 -27 22 -17 7 -34 15 -37 19 -3 3
-45 26 -95 50 -49 25 -92 47 -95 50 -3 3 -14 7 -25 8 -11 2 -22 7 -25 11 -5 7
-84 41 -96 41 -3 0 -2 -6 1 -12 4 -7 0 -5 -8 4 -17 21 -82 50 -91 41 -3 -4 -6
-1 -6 7 0 10 -4 10 -17 -1 -9 -8 -14 -9 -10 -3 10 16 -18 25 -32 11 -10 -9
-12 -9 -9 2 2 7 -4 15 -12 16 -8 1 -36 10 -62 18 -26 9 -58 18 -72 21 -13 2
-34 9 -45 16 -16 8 -21 8 -21 -2 0 -10 -2 -10 -8 -1 -7 11 -65 29 -122 38 -14
2 -36 6 -49 9 -13 3 -69 8 -125 11 -242 12 -367 17 -453 19 -51 0 -93 5 -93 9
0 5 -5 5 -11 1 -20 -12 -153 -12 -161 0 -6 8 -8 8 -8 0z m-166 -32 c2 -4 -5
-9 -17 -9 -17 -2 -19 0 -7 7 18 12 18 12 24 2z m-114 -12 c0 -5 -7 -10 -16
-10 -8 0 -12 5 -9 10 3 6 10 10 16 10 5 0 9 -4 9 -10z m40 0 c-20 -13 -33 -13
-25 0 3 6 14 10 23 10 15 0 15 -2 2 -10z m-80 -12 c0 -4 -10 -8 -22 -8 -13 0
-41 -3 -63 -7 -48 -7 -44 3 5 12 19 3 36 8 38 10 7 7 42 1 42 -7z m1461 -76
c-7 -2 -18 1 -23 6 -8 8 -4 9 13 5 13 -4 18 -8 10 -11z m-1931 -22 c-8 -5 -19
-10 -25 -10 -5 0 -3 5 5 10 8 5 20 10 25 10 6 0 3 -5 -5 -10z m-70 -20 c0 -5
-5 -10 -11 -10 -5 0 -7 5 -4 10 3 6 8 10 11 10 2 0 4 -4 4 -10z m-32 -15 c-3
-3 -15 -8 -27 -10 -13 -2 -32 -7 -44 -10 -18 -5 -19 -4 -6 4 9 6 26 12 38 14
11 2 24 6 27 10 4 4 10 5 12 2 3 -3 3 -7 0 -10z m-578 -233 c0 -6 -28 -21 -75
-39 -5 -2 8 7 30 21 45 29 45 29 45 18z m-90 -52 c0 -5 -5 -10 -11 -10 -5 0
-7 5 -4 10 3 6 8 10 11 10 2 0 4 -4 4 -10z m3665 -108 c-5 -5 -88 38 -107 56
-39 33 -14 28 46 -12 35 -22 63 -42 61 -44z m-4062 -197 c-3 -9 -8 -14 -10
-11 -3 3 -2 9 2 15 9 16 15 13 8 -4z m4511 -331 c3 -8 2 -12 -4 -9 -6 3 -10
10 -10 16 0 14 7 11 14 -7z m-4653 -57 c-10 -9 -11 -8 -5 6 3 10 9 15 12 12 3
-3 0 -11 -7 -18z m4784 -165 c-3 -3 -11 0 -18 7 -9 10 -8 11 6 5 10 -3 15 -9
12 -12z m95 -283 c0 -11 -4 -18 -10 -14 -5 3 -7 12 -3 20 7 21 13 19 13 -6z
m58 -460 c-3 -8 -7 -3 -11 10 -4 17 -3 21 5 13 5 -5 8 -16 6 -23z m-5575 -849
c-5 -19 -23 -39 -23 -25 0 9 20 45 24 45 2 0 2 -9 -1 -20z m-373 -804 c0 -2
-8 -10 -17 -17 -16 -13 -17 -12 -4 4 13 16 21 21 21 13z m-49 -79 c-10 -9 -11
-8 -5 6 3 10 9 15 12 12 3 -3 0 -11 -7 -18z m-11 -20 c0 -2 -10 -12 -22 -23
l-23 -19 19 23 c18 21 26 27 26 19z m6017 -380 c2 -78 4 -154 5 -169 0 -17 5
-25 11 -21 6 4 7 1 2 -7 -5 -8 -7 -57 -6 -109 8 -251 -2 -392 -14 -200 -3 46
-8 118 -12 159 -7 88 -11 383 -5 453 7 86 16 40 19 -106z m-6642 -517 c-3 -5
-11 -10 -16 -10 -6 0 -7 5 -4 10 3 6 11 10 16 10 6 0 7 -4 4 -10z m5090 -60
c-3 -5 -11 -10 -16 -10 -6 0 -7 5 -4 10 3 6 11 10 16 10 6 0 7 -4 4 -10z
m-5640 -700 c-3 -5 -11 -10 -16 -10 -6 0 -7 5 -4 10 3 6 11 10 16 10 6 0 7 -4
4 -10z m7243 -195 c1 -14 -2 -25 -6 -25 -4 0 -9 11 -10 25 -1 14 2 25 6 25 4
0 9 -11 10 -25z m1 -57 c0 -13 3 -39 8 -58 10 -43 9 -254 -1 -335 -5 -33 -9
-85 -11 -115 -2 -30 -4 -57 -5 -60 -1 -3 -2 -34 -2 -70 0 -61 0 -62 -8 -25 -9
40 -5 232 6 290 3 17 5 35 5 40 -7 184 -7 355 0 355 5 0 8 -10 8 -22z m-7699
-562 c0 -2 -8 -10 -17 -17 -16 -13 -17 -12 -4 4 13 16 21 21 21 13z m-61 -112
c-17 -38 -37 -82 -45 -99 -7 -16 -14 -25 -14 -18 0 15 82 195 87 190 2 -2 -11
-35 -28 -73z m-59 -149 c0 -8 -4 -15 -10 -15 -5 0 -7 7 -4 15 4 8 8 15 10 15
2 0 4 -7 4 -15z m-17 -45 c-3 -11 -10 -23 -16 -27 -5 -3 -8 -2 -5 3 3 5 8 17
11 27 9 24 16 22 10 -3z m-30 -85 c-3 -9 -8 -14 -10 -11 -3 3 -2 9 2 15 9 16
15 13 8 -4z m-9 -40 c-4 -8 -8 -15 -10 -15 -2 0 -4 7 -4 15 0 8 4 15 10 15 5
0 7 -7 4 -15z m7881 -5 c-3 -5 -11 -10 -16 -10 -6 0 -7 5 -4 10 3 6 11 10 16
10 6 0 7 -4 4 -10z m-7950 -229 c3 -5 2 -12 -3 -15 -5 -3 -9 1 -9 9 0 17 3 19
12 6z"/>
<path d="M1610 5493 c0 -5 -14 -24 -30 -43 -30 -35 -37 -50 -22 -50 7 1 72 85
72 95 0 3 -4 5 -10 5 -5 0 -10 -3 -10 -7z"/>
<path d="M792 4368 c-7 -7 -12 -16 -12 -20 0 -15 15 -8 28 12 13 22 3 27 -16
8z"/>
<path d="M185 2990 c-3 -5 -4 -10 0 -10 3 0 -1 -13 -10 -30 -9 -16 -13 -30 -9
-30 4 0 1 -7 -6 -15 -7 -8 -10 -15 -7 -15 7 0 -32 -112 -45 -127 -6 -7 -7 -13
-4 -13 4 0 2 -9 -4 -20 -6 -12 -7 -20 -1 -20 10 0 36 64 70 173 11 37 25 76
31 87 10 20 -3 39 -15 20z"/>
<path d="M71 2663 c-6 -21 -9 -40 -8 -43 1 -3 -6 -18 -16 -33 -9 -15 -14 -27
-10 -27 5 0 4 -4 -2 -8 -15 -11 -35 -50 -35 -69 0 -15 14 -10 16 5 0 4 14 35
31 70 17 34 30 62 28 62 -2 0 3 16 11 35 17 41 17 45 4 45 -5 0 -14 -17 -19
-37z"/>
</g>
</svg>
